/* XPM */
static const char * Add_xpm[] = {
"17 17 60 1",
" 	c None",
".	c #79885A",
"+	c #8E9C72",
"@	c #8D9B71",
"#	c #99A77D",
"$	c #DEE7CC",
"%	c #DBE4C8",
"&	c #7C8B5B",
"*	c #98A77A",
"=	c #DDE8C7",
"-	c #D9E5C3",
";	c #7B8B59",
">	c #94A473",
",	c #D4E1B8",
"'	c #D0DEB5",
")	c #788955",
"!	c #8B9D68",
"~	c #C3D3A2",
"{	c #C0D19F",
"]	c #73854E",
"^	c #6B7D47",
"/	c #778A4F",
"(	c #778B4F",
"_	c #92A56B",
":	c #B1C48A",
"<	c #B0C288",
"[	c #81945A",
"}	c #73864C",
"|	c #7A8C53",
"1	c #9FB472",
"2	c #A0B573",
"3	c #97AC6A",
"4	c #73864A",
"5	c #8DA65A",
"6	c #8EA75B",
"7	c #879F55",
"8	c #6C8041",
"9	c #7C9744",
"0	c #7D9744",
"a	c #779141",
"b	c #63753C",
"c	c #5F7532",
"d	c #647C34",
"e	c #6D8737",
"f	c #6D8637",
"g	c #607732",
"h	c #607532",
"i	c #5E7332",
"j	c #596D2F",
"k	c #5F742F",
"l	c #5E742F",
"m	c #576A2E",
"n	c #53662B",
"o	c #526529",
"p	c #53662C",
"q	c #52642B",
"r	c #4F6228",
"s	c #52652C",
"t	c #647542",
"u	c #62733F",
"                 ",
"      .++@       ",
"      #$$%&      ",
"      *==-;      ",
"      >,,')      ",
"      !~~{]      ",
" ^/((/_::<[(((}  ",
" |1222222222223  ",
" 45666666666667  ",
" 8900000000000a  ",
" bccccdeefghcci  ",
"      jkklm      ",
"      nooop      ",
"      qrrrs      ",
"      qrrrs      ",
"      tuuu       ",
"                 "};
