/* XPM */
static const char * Cancel_xpm[] = {
"40 40 338 2",
"  	c None",
". 	c #000000",
"+ 	c #010000",
"@ 	c #0D0000",
"# 	c #240000",
"$ 	c #330000",
"% 	c #3B0000",
"& 	c #3C0000",
"* 	c #340000",
"= 	c #250000",
"- 	c #0E0000",
"; 	c #110000",
"> 	c #410000",
", 	c #7B0000",
"' 	c #A00000",
") 	c #B40000",
"! 	c #C30000",
"~ 	c #CD0000",
"{ 	c #D00000",
"] 	c #C70000",
"^ 	c #B70000",
"/ 	c #A30000",
"( 	c #7F0000",
"_ 	c #430000",
": 	c #120000",
"< 	c #5B0000",
"[ 	c #A50000",
"} 	c #C40000",
"| 	c #DD0800",
"1 	c #ED1400",
"2 	c #F31900",
"3 	c #F61A00",
"4 	c #F71900",
"5 	c #F81900",
"6 	c #F71A00",
"7 	c #F51900",
"8 	c #F01400",
"9 	c #E10900",
"0 	c #C80000",
"a 	c #A80000",
"b 	c #5E0000",
"c 	c #140000",
"d 	c #4D0000",
"e 	c #AE0200",
"f 	c #D30700",
"g 	c #E31200",
"h 	c #F01900",
"i 	c #F21100",
"j 	c #EE0500",
"k 	c #EC0000",
"l 	c #EB0000",
"m 	c #EA0000",
"n 	c #E90000",
"o 	c #E80000",
"p 	c #E90500",
"q 	c #ED1100",
"r 	c #ED1900",
"s 	c #E41300",
"t 	c #D60700",
"u 	c #B20300",
"v 	c #500000",
"w 	c #020000",
"x 	c #1E0000",
"y 	c #6C0000",
"z 	c #C70900",
"A 	c #DD0F00",
"B 	c #EE1200",
"C 	c #F00700",
"D 	c #ED0000",
"E 	c #E70000",
"F 	c #E60000",
"G 	c #E50000",
"H 	c #E70700",
"I 	c #E81200",
"J 	c #CA0900",
"K 	c #700000",
"L 	c #200000",
"M 	c #270000",
"N 	c #800200",
"O 	c #C80D00",
"P 	c #E80F00",
"Q 	c #F00800",
"R 	c #EE0000",
"S 	c #E40000",
"T 	c #E30000",
"U 	c #E50800",
"V 	c #E10E00",
"W 	c #C90D00",
"X 	c #840200",
"Y 	c #280000",
"Z 	c #810400",
"` 	c #CD0E00",
" .	c #EB0B00",
"..	c #EF0200",
"+.	c #E20000",
"@.	c #E10000",
"#.	c #E10100",
"$.	c #E00B00",
"%.	c #CB0E00",
"&.	c #840400",
"*.	c #210000",
"=.	c #720300",
"-.	c #CA0D00",
";.	c #EC0900",
">.	c #EF0100",
",.	c #EF0000",
"'.	c #E00000",
").	c #DF0000",
"!.	c #DE0100",
"~.	c #DF0800",
"{.	c #740300",
"].	c #0F0000",
"^.	c #560200",
"/.	c #C90C00",
"(.	c #EE0800",
"_.	c #DE0000",
":.	c #DD0000",
"<.	c #DE0800",
"[.	c #C60C00",
"}.	c #590200",
"|.	c #1B0000",
"1.	c #AE0800",
"2.	c #EA0A00",
"3.	c #DC0000",
"4.	c #DB0000",
"5.	c #DB0A00",
"6.	c #AE0900",
"7.	c #600300",
"8.	c #E00C00",
"9.	c #EC1414",
"0.	c #DA0000",
"a.	c #D40C00",
"b.	c #620300",
"c.	c #A60A00",
"d.	c #EF0300",
"e.	c #E80101",
"f.	c #EE4545",
"g.	c #F7A6A6",
"h.	c #ED3333",
"i.	c #D90000",
"j.	c #D90300",
"k.	c #A30B00",
"l.	c #460300",
"m.	c #D40800",
"n.	c #E80505",
"o.	c #F06262",
"p.	c #FCDADA",
"q.	c #FEFAFA",
"r.	c #F7ACAC",
"s.	c #EA1E1E",
"t.	c #D80000",
"u.	c #D70000",
"v.	c #C50800",
"w.	c #470300",
"x.	c #040000",
"y.	c #810700",
"z.	c #E60200",
"A.	c #E50202",
"B.	c #E81E1E",
"C.	c #F48D8D",
"D.	c #FEF2F2",
"E.	c #FFFFFF",
"F.	c #F59A9A",
"G.	c #E71919",
"H.	c #D60000",
"I.	c #D10200",
"J.	c #7D0700",
"K.	c #A20500",
"L.	c #EB0100",
"M.	c #E93434",
"N.	c #F5A5A5",
"O.	c #FEF8F8",
"P.	c #FDF1F1",
"Q.	c #F17C7C",
"R.	c #E50D0D",
"S.	c #D40100",
"T.	c #960500",
"U.	c #130000",
"V.	c #240200",
"W.	c #B60300",
"X.	c #E30303",
"Y.	c #EA4242",
"Z.	c #F8C2C2",
"`.	c #FFFDFD",
" +	c #F9CDCD",
".+	c #E62424",
"++	c #D50000",
"@+	c #D40000",
"#+	c #A40300",
"$+	c #230200",
"%+	c #310200",
"&+	c #BE0100",
"*+	c #E20909",
"=+	c #EC5F5F",
"-+	c #F9CFCF",
";+	c #FFFEFE",
">+	c #FAD5D5",
",+	c #EC6363",
"'+	c #E20D0D",
")+	c #D30000",
"!+	c #AB0100",
"~+	c #2E0200",
"{+	c #370100",
"]+	c #C20100",
"^+	c #E10F0F",
"/+	c #EE7878",
"(+	c #FCE4E4",
"_+	c #F8CACA",
":+	c #E74444",
"<+	c #E00808",
"[+	c #D20000",
"}+	c #AD0100",
"|+	c #320100",
"1+	c #380000",
"2+	c #C20000",
"3+	c #DE0101",
"4+	c #E32828",
"5+	c #F3A4A4",
"6+	c #FFFCFC",
"7+	c #FEF6F6",
"8+	c #F2A4A4",
"9+	c #E11B1B",
"0+	c #AD0000",
"a+	c #320000",
"b+	c #370000",
"c+	c #C00000",
"d+	c #DC0404",
"e+	c #E43838",
"f+	c #F7C1C1",
"g+	c #FBE7E7",
"h+	c #EF8F8F",
"i+	c #DD0C0C",
"j+	c #D10000",
"k+	c #AB0000",
"l+	c #300000",
"m+	c #2E0000",
"n+	c #B90000",
"o+	c #DC0B0B",
"p+	c #E75858",
"q+	c #F8CCCC",
"r+	c #F8D6D6",
"s+	c #E96C6C",
"t+	c #DD0F0F",
"u+	c #1D0000",
"v+	c #DC1313",
"w+	c #EA7474",
"x+	c #FADDDD",
"y+	c #F6C7C7",
"z+	c #E44D4D",
"A+	c #DA0B0B",
"B+	c #CF0000",
"C+	c #990000",
"D+	c #190000",
"E+	c #060000",
"F+	c #970000",
"G+	c #DA1414",
"H+	c #EE9393",
"I+	c #FCEEEE",
"J+	c #F4B8B8",
"K+	c #DE2C2C",
"L+	c #D80505",
"M+	c #CC0000",
"N+	c #850000",
"O+	c #050000",
"P+	c #620000",
"Q+	c #DC2727",
"R+	c #F7CFCF",
"S+	c #FCEFEF",
"T+	c #ED9595",
"U+	c #D60606",
"V+	c #CE0000",
"W+	c #C10000",
"X+	c #550000",
"Y+	c #D40404",
"Z+	c #E04D4D",
"`+	c #F8D9D9",
" @	c #F9DBDB",
".@	c #E77171",
"+@	c #D60D0D",
"@@	c #220000",
"#@	c #860000",
"$@	c #D40C0C",
"%@	c #E56B6B",
"&@	c #FAE6E6",
"*@	c #FEFBFB",
"=@	c #F5C8C8",
"-@	c #E15454",
";@	c #D40B0B",
">@	c #750000",
",@	c #260000",
"'@	c #D41212",
")@	c #E98A8A",
"!@	c #FDF4F4",
"~@	c #F1B3B3",
"{@	c #DB3838",
"]@	c #D20606",
"^@	c #BE0000",
"/@	c #730000",
"(@	c #D31515",
"_@	c #E36C6C",
":@	c #D41A1A",
"<@	c #D00101",
"[@	c #640000",
"}@	c #920000",
"|@	c #810000",
"1@	c #2A0000",
"2@	c #A10000",
"3@	c #C60000",
"4@	c #900000",
"5@	c #030000",
"6@	c #9C0000",
"7@	c #CA0000",
"8@	c #CB0000",
"9@	c #8C0000",
"0@	c #2C0000",
"a@	c #C90000",
"b@	c #740000",
"c@	c #580000",
"d@	c #BD0000",
"e@	c #AF0000",
"f@	c #4F0000",
"g@	c #600000",
"h@	c #A90000",
"i@	c #BA0000",
"j@	c #9F0000",
"k@	c #590000",
"l@	c #760000",
"m@	c #940000",
"n@	c #AC0000",
"o@	c #A70000",
"p@	c #9E0000",
"q@	c #8F0000",
"r@	c #710000",
"s@	c #3D0000",
"t@	c #100000",
"u@	c #310000",
"v@	c #1F0000",
"w@	c #0C0000",
"                                                                                ",
"                                                                                ",
"                            . + @ # $ % & * = - + .                             ",
"                        . ; > , ' ) ! ~ { ] ^ / ( _ : .                         ",
"                    . : < [ } | 1 2 3 4 5 6 7 8 9 0 a b c .                     ",
"                . @ d e f g h i j k l m n n o p q r s t u v - .                 ",
"              w x y z A B C D D k l m n o o E F G G H I A J K L w               ",
"            w M N O P Q R D D k l m m m n o E G G S T T U V W X Y w             ",
"          + L Z `  ...R D D k D R R R R R R D l o S +.+.@.#.$.%.&.*.+           ",
"          - =.-.;.>.R D D D R ,.,.,.,.,.,.,.,.,.R D o +.'.).!.~.O {.].          ",
"        + ^./.(.,.R D D D D D D D D D D D D D D D D D l S )._.:.<.[.}.+         ",
"      . |.1.2.,.R D k k k k k k k k k k k k k k k k k k l S :.3.4.5.6.|..       ",
"      w 7.8.,.R D l m m m m m m m m m m m m m m m 9.m m m m +.3.0.0.a.b.w       ",
"      |.c.d.R D l n o o o o o o o o o o o o o e.f.g.h.o o o E '.0.i.j.k.|.      ",
"    . l.m.R D l o E E E E E E E E E E E E E n.o.p.q.r.s.E E E S 3.t.u.v.w..     ",
"    x.y.z.D k o G G G G G G G G G G G G A.B.C.D.E.E.q.F.G.G G G '.t.H.I.J.x.    ",
"    c K.L.D m G S S S S S S S S S S S S M.N.O.E.E.E.E.P.Q.R.S S +.i.H.S.T.U.    ",
"    V.W.D k E T T +.+.T T T +.+.T T X.Y.Z.`.E.E.E.E.E.E. +.++.T +.4.++@+#+$+    ",
"    %+&+k m S @.@.@.@.@.@.@.@.@.@.*+=+-+E.E.E.E.E.E.;+>+,+'+@.@.@.3.++)+!+~+    ",
"    {+]+l n @.).).).).).).).).).^+/+(+`.E.E.E.E.E.`._+:+<+).).).).3.@+[+}+|+    ",
"    1+2+m E )._._._._._._._.3+4+5+6+E.E.E.E.E.E.7+8+9+_._._._._._.3.)+[+0+a+    ",
"    b+c+n E _.3.3.3.3.3.3.d+e+f+E.E.E.E.E.E.E.g+h+i+3.3.3.3.3.3.3.0.)+j+k+l+    ",
"    m+n+n F :.0.0.4.0.4.o+p+q+E.E.E.E.E.E.;+r+s+t+0.4.0.0.4.0.4.0.i.[+{ [ Y     ",
"    u+0+o F :.i.i.i.i.v+w+x+`.E.E.E.E.E.6+y+z+A+i.i.i.i.i.i.i.i.i.H.j+B+C+D+    ",
"    E+F+F G _.u.u.u.G+H+I+;+E.E.E.E.E.E.J+K+L+u.u.u.u.u.u.u.u.u.u.)+{ M+N+O+    ",
"    . P+t.G @.u.H.H.Q+R+`.E.E.E.E.E.S+T+U+H.H.H.H.H.H.H.H.H.H.H.++j+V+W+X+.     ",
"      Y ! G +.i.@+@+Y+Z+`+;+E.E.`. @.@+@@+@+@+@+@+@+@+@+@+@+@+@+[+B+V+0+@@      ",
"      x.#@S T :.@+[+[+$@%@&@E.*@=@-@;@[+[+[+[+[+[+[+[+[+[+[+[+[+{ V+~ >@w       ",
"      . ,@+++.@.t.j+j+j+'@)@!@~@{@]@j+j+j+j+j+j+j+j+j+j+j+j+j+B+V+~ ^@L .       ",
"        w /@@.@._.@+B+B+B+(@_@:@<@B+B+B+B+B+B+B+B+B+B+B+B+B+B+V+~ M+[@+         ",
"          U.}@4.).:.)+V+V+V+V+V+V+V+V+V+V+V+V+V+V+V+V+V+V+V+V+~ ] |@;           ",
"          + 1@2@i._.4.@+V+M+M+M+M+M+M+M+M+M+M+M+M+M+M+M+~ V+~ 3@4@= +           ",
"            5@a+6@u.3.4.H.j+~ 7@7@7@7@7@7@7@7@7@7@8@M+~ V+~ 3@9@0@5@            ",
"              5@= |@t.0.0.u.++j+V+8@7@a@a@7@7@M+~ V+V+V+~ a@b@*.w               ",
"                . ].c@d@i.t.u.H.++)+[+j+{ { B+B+B+V+V+~ e@f@- .                 ",
"                    . c g@h@! { @+@+)+[+[+j+{ B+0 i@j@k@: .                     ",
"                      . . : > l@m@2@h@0+n@o@p@q@r@s@t@.                         ",
"                            . + @ L 0@a+u@0@v@w@+ .                             ",
"                                                                                ",
"                                                                                "};
