/* XPM */
static const char * Color_xpm[] = {
"17 17 290 2",
"  	c None",
". 	c #0707F7",
"+ 	c #1607E8",
"@ 	c #2507D9",
"# 	c #3407CA",
"$ 	c #4307BB",
"% 	c #5207AC",
"& 	c #61079D",
"* 	c #70078E",
"= 	c #7F077F",
"- 	c #8E0770",
"; 	c #9D0761",
"> 	c #AC0752",
", 	c #BB0743",
"' 	c #CA0734",
") 	c #D90725",
"! 	c #E80716",
"~ 	c #F70707",
"{ 	c #0716F7",
"] 	c #1616E8",
"^ 	c #2516D9",
"/ 	c #3416CA",
"( 	c #4316BB",
"_ 	c #5216AC",
": 	c #61169D",
"< 	c #70168E",
"[ 	c #7F167F",
"} 	c #8E1670",
"| 	c #9D1661",
"1 	c #AC1652",
"2 	c #BB1643",
"3 	c #CA1634",
"4 	c #D91625",
"5 	c #E81616",
"6 	c #F71607",
"7 	c #0725F7",
"8 	c #1625E8",
"9 	c #2525D9",
"0 	c #3425CA",
"a 	c #4325BB",
"b 	c #5225AC",
"c 	c #61259D",
"d 	c #70258E",
"e 	c #7F257F",
"f 	c #8E2570",
"g 	c #9D2561",
"h 	c #AC2552",
"i 	c #BB2543",
"j 	c #CA2534",
"k 	c #D92525",
"l 	c #E82516",
"m 	c #F72507",
"n 	c #0734F7",
"o 	c #1634E8",
"p 	c #2534D9",
"q 	c #3434CA",
"r 	c #4334BB",
"s 	c #5234AC",
"t 	c #61349D",
"u 	c #70348E",
"v 	c #7F347F",
"w 	c #8E3470",
"x 	c #9D3461",
"y 	c #AC3452",
"z 	c #BB3443",
"A 	c #CA3434",
"B 	c #D93425",
"C 	c #E83416",
"D 	c #F73407",
"E 	c #0743F7",
"F 	c #1643E8",
"G 	c #2543D9",
"H 	c #3443CA",
"I 	c #4343BB",
"J 	c #5243AC",
"K 	c #61439D",
"L 	c #70438E",
"M 	c #7F437F",
"N 	c #8E4370",
"O 	c #9D4361",
"P 	c #AC4352",
"Q 	c #BB4343",
"R 	c #CA4334",
"S 	c #D94325",
"T 	c #E84316",
"U 	c #F74307",
"V 	c #0752F7",
"W 	c #1652E8",
"X 	c #2552D9",
"Y 	c #3452CA",
"Z 	c #4352BB",
"` 	c #5252AC",
" .	c #61529D",
"..	c #70528E",
"+.	c #7F527F",
"@.	c #8E5270",
"#.	c #9D5261",
"$.	c #AC5252",
"%.	c #BB5243",
"&.	c #CA5234",
"*.	c #D95225",
"=.	c #E85216",
"-.	c #F75207",
";.	c #0761F7",
">.	c #1661E8",
",.	c #2561D9",
"'.	c #3461CA",
").	c #4361BB",
"!.	c #5261AC",
"~.	c #61619D",
"{.	c #70618E",
"].	c #7F617F",
"^.	c #8E6170",
"/.	c #9D6161",
"(.	c #AC6152",
"_.	c #BB6143",
":.	c #CA6134",
"<.	c #D96125",
"[.	c #E86116",
"}.	c #F76107",
"|.	c #0770F7",
"1.	c #1670E8",
"2.	c #2570D9",
"3.	c #3470CA",
"4.	c #4370BB",
"5.	c #5270AC",
"6.	c #61709D",
"7.	c #70708E",
"8.	c #7F707F",
"9.	c #8E7070",
"0.	c #9D7061",
"a.	c #AC7052",
"b.	c #BB7043",
"c.	c #CA7034",
"d.	c #D97025",
"e.	c #E87016",
"f.	c #F77007",
"g.	c #077FF7",
"h.	c #167FE8",
"i.	c #257FD9",
"j.	c #347FCA",
"k.	c #437FBB",
"l.	c #527FAC",
"m.	c #617F9D",
"n.	c #707F8E",
"o.	c #7F7F7F",
"p.	c #8E7F70",
"q.	c #9D7F61",
"r.	c #AC7F52",
"s.	c #BB7F43",
"t.	c #CA7F34",
"u.	c #D97F25",
"v.	c #E87F16",
"w.	c #F77F07",
"x.	c #078EF7",
"y.	c #168EE8",
"z.	c #258ED9",
"A.	c #348ECA",
"B.	c #438EBB",
"C.	c #528EAC",
"D.	c #618E9D",
"E.	c #708E8E",
"F.	c #7F8E7F",
"G.	c #8E8E70",
"H.	c #9D8E61",
"I.	c #AC8E52",
"J.	c #BB8E43",
"K.	c #CA8E34",
"L.	c #D98E25",
"M.	c #E88E16",
"N.	c #F78E07",
"O.	c #079DF7",
"P.	c #169DE8",
"Q.	c #259DD9",
"R.	c #349DCA",
"S.	c #439DBB",
"T.	c #529DAC",
"U.	c #619D9D",
"V.	c #709D8E",
"W.	c #7F9D7F",
"X.	c #8E9D70",
"Y.	c #9D9D61",
"Z.	c #AC9D52",
"`.	c #BB9D43",
" +	c #CA9D34",
".+	c #D99D25",
"++	c #E89D16",
"@+	c #F79D07",
"#+	c #07ACF7",
"$+	c #16ACE8",
"%+	c #25ACD9",
"&+	c #34ACCA",
"*+	c #43ACBB",
"=+	c #52ACAC",
"-+	c #61AC9D",
";+	c #70AC8E",
">+	c #7FAC7F",
",+	c #8EAC70",
"'+	c #9DAC61",
")+	c #ACAC52",
"!+	c #BBAC43",
"~+	c #CAAC34",
"{+	c #D9AC25",
"]+	c #E8AC16",
"^+	c #F7AC07",
"/+	c #07BBF7",
"(+	c #16BBE8",
"_+	c #25BBD9",
":+	c #34BBCA",
"<+	c #43BBBB",
"[+	c #52BBAC",
"}+	c #61BB9D",
"|+	c #70BB8E",
"1+	c #7FBB7F",
"2+	c #8EBB70",
"3+	c #9DBB61",
"4+	c #ACBB52",
"5+	c #BBBB43",
"6+	c #CABB34",
"7+	c #D9BB25",
"8+	c #E8BB16",
"9+	c #F7BB07",
"0+	c #07CAF7",
"a+	c #16CAE8",
"b+	c #25CAD9",
"c+	c #34CACA",
"d+	c #43CABB",
"e+	c #52CAAC",
"f+	c #61CA9D",
"g+	c #70CA8E",
"h+	c #7FCA7F",
"i+	c #8ECA70",
"j+	c #9DCA61",
"k+	c #ACCA52",
"l+	c #BBCA43",
"m+	c #CACA34",
"n+	c #D9CA25",
"o+	c #E8CA16",
"p+	c #F7CA07",
"q+	c #07D9F7",
"r+	c #16D9E8",
"s+	c #25D9D9",
"t+	c #34D9CA",
"u+	c #43D9BB",
"v+	c #52D9AC",
"w+	c #61D99D",
"x+	c #70D98E",
"y+	c #7FD97F",
"z+	c #8ED970",
"A+	c #9DD961",
"B+	c #ACD952",
"C+	c #BBD943",
"D+	c #CAD934",
"E+	c #D9D925",
"F+	c #E8D916",
"G+	c #F7D907",
"H+	c #07E8F7",
"I+	c #16E8E8",
"J+	c #25E8D9",
"K+	c #34E8CA",
"L+	c #43E8BB",
"M+	c #52E8AC",
"N+	c #61E89D",
"O+	c #70E88E",
"P+	c #7FE87F",
"Q+	c #8EE870",
"R+	c #9DE861",
"S+	c #ACE852",
"T+	c #BBE843",
"U+	c #CAE834",
"V+	c #D9E825",
"W+	c #E8E816",
"X+	c #F7E807",
"Y+	c #07F7F7",
"Z+	c #16F7E8",
"`+	c #25F7D9",
" @	c #34F7CA",
".@	c #43F7BB",
"+@	c #52F7AC",
"@@	c #61F79D",
"#@	c #70F78E",
"$@	c #7FF77F",
"%@	c #8EF770",
"&@	c #9DF761",
"*@	c #ACF752",
"=@	c #BBF743",
"-@	c #CAF734",
";@	c #D9F725",
">@	c #E8F716",
",@	c #F7F707",
". + @ # $ % & * = - ; > , ' ) ! ~ ",
"{ ] ^ / ( _ : < [ } | 1 2 3 4 5 6 ",
"7 8 9 0 a b c d e f g h i j k l m ",
"n o p q r s t u v w x y z A B C D ",
"E F G H I J K L M N O P Q R S T U ",
"V W X Y Z `  ...+.@.#.$.%.&.*.=.-.",
";.>.,.'.).!.~.{.].^./.(._.:.<.[.}.",
"|.1.2.3.4.5.6.7.8.9.0.a.b.c.d.e.f.",
"g.h.i.j.k.l.m.n.o.p.q.r.s.t.u.v.w.",
"x.y.z.A.B.C.D.E.F.G.H.I.J.K.L.M.N.",
"O.P.Q.R.S.T.U.V.W.X.Y.Z.`. +.+++@+",
"#+$+%+&+*+=+-+;+>+,+'+)+!+~+{+]+^+",
"/+(+_+:+<+[+}+|+1+2+3+4+5+6+7+8+9+",
"0+a+b+c+d+e+f+g+h+i+j+k+l+m+n+o+p+",
"q+r+s+t+u+v+w+x+y+z+A+B+C+D+E+F+G+",
"H+I+J+K+L+M+N+O+P+Q+R+S+T+U+V+W+X+",
"Y+Z+`+ @.@+@@@#@$@%@&@*@=@-@;@>@,@"};
