/* XPM */
static const char * Delete_xpm[] = {
"17 17 93 2",
"  	c None",
". 	c #906462",
"+ 	c #926564",
"@ 	c #6D2D2B",
"# 	c #6E302E",
"$ 	c #6F312F",
"% 	c #6D2E2C",
"& 	c #916260",
"* 	c #742D2B",
"= 	c #752C2A",
"- 	c #763432",
"; 	c #743331",
"> 	c #732C2A",
", 	c #753230",
"' 	c #7C3331",
") 	c #81302E",
"! 	c #80302E",
"~ 	c #7D3836",
"{ 	c #7C3432",
"] 	c #7F302E",
"^ 	c #7B3533",
"/ 	c #7C3B39",
"( 	c #893432",
"_ 	c #8D3533",
": 	c #8D3432",
"< 	c #8C3432",
"[ 	c #863432",
"} 	c #883331",
"| 	c #7A3937",
"1 	c #803B39",
"2 	c #933A38",
"3 	c #983B39",
"4 	c #973B39",
"5 	c #973A38",
"6 	c #913937",
"7 	c #803C3A",
"8 	c #915755",
"9 	c #9B4341",
"0 	c #A04644",
"a 	c #9F4644",
"b 	c #9F4543",
"c 	c #984240",
"d 	c #844240",
"e 	c #976B69",
"f 	c #974947",
"g 	c #A85250",
"h 	c #A8524F",
"i 	c #A8514F",
"j 	c #8E4442",
"k 	c #9A6C6B",
"l 	c #9C5553",
"m 	c #B05D5B",
"n 	c #AD5B59",
"o 	c #945351",
"p 	c #996C6A",
"q 	c #A25C5A",
"r 	c #B86866",
"s 	c #B96967",
"t 	c #B96866",
"u 	c #B86765",
"v 	c #B46563",
"w 	c #975856",
"x 	c #996D6C",
"y 	c #A66260",
"z 	c #C17472",
"A 	c #C07472",
"B 	c #B26866",
"C 	c #965553",
"D 	c #BB6F6D",
"E 	c #C07371",
"F 	c #BE716F",
"G 	c #975B59",
"H 	c #A26462",
"I 	c #C77E7C",
"J 	c #C97F7D",
"K 	c #B7716F",
"L 	c #925B59",
"M 	c #9C6260",
"N 	c #C27977",
"O 	c #C87F7D",
"P 	c #C37A78",
"Q 	c #A66968",
"R 	c #CF8987",
"S 	c #BF7A78",
"T 	c #95605E",
"U 	c #9E6563",
"V 	c #CC8684",
"W 	c #CA8482",
"X 	c #9D5F5D",
"Y 	c #A06664",
"Z 	c #966260",
"` 	c #9E6664",
" .	c #9D6261",
"                                  ",
"        .                         ",
"      + @ #           $ %         ",
"    & * = = -       ; > > ,       ",
"    ' ) ) ) ! ~   { ! ! ! ] ^     ",
"    / ( _ : : < [ < : < < } |     ",
"      1 2 3 3 3 4 5 5 5 6 7       ",
"        8 9 0 0 a a b c d         ",
"        e f g h g i i j           ",
"      k l m m m m m m n o         ",
"    p q r s t r r r r u v w       ",
"  x y z z z A B C D E E E F G     ",
"    H I J J K L   M N O O P w     ",
"      Q R S T       U V W X       ",
"        Y Z           `  .        ",
"                                  ",
"                                  "};
