/* XPM */
static const char * Edit_xpm[] = {
"17 17 34 1",
" 	c None",
".	c #DD8079",
"+	c #DECDCB",
"@	c #CE7E78",
"#	c #C04A46",
"$	c #DBDBDA",
"%	c #C6C4C3",
"&	c #947A79",
"*	c #9ED49E",
"=	c #B7C3B5",
"-	c #878685",
";	c #84D184",
">	c #61BD61",
",	c #559754",
"'	c #7FCF7F",
")	c #5FBD5F",
"!	c #359535",
"~	c #83D183",
"{	c #60BD60",
"]	c #379937",
"^	c #80D080",
"/	c #5EBD5E",
"(	c #359635",
"_	c #60BE60",
":	c #379837",
"<	c #80CF80",
"[	c #BFCF81",
"}	c #63BD61",
"|	c #ECD188",
"1	c #C6AB64",
"2	c #687C32",
"3	c #C0A568",
"4	c #9B7C3E",
"5	c #3B3933",
"               . ",
"              +@#",
"             $%& ",
"            *=-  ",
"           ;>,   ",
"          ')!    ",
"         ~{]     ",
"        ^/(      ",
"       ^_:       ",
"      ~/:        ",
"     '{(         ",
"    ;)]          ",
"   </!           ",
"  [}:            ",
" |12             ",
" 34              ",
"5                "};
