/* XPM */
static const char * Ok_xpm[] = {
"40 40 11 1",
" 	c None",
".	c #79885A",
"+	c #DDE8C7",
"@	c #D4E1B8",
"#	c #B1C48A",
"$	c #A0B573",
"%	c #8EA75B",
"&	c #7D9744",
"*	c #4F6228",
"=	c #6D8737",
"-	c #5F742F",
"                                        ",
"                                     .. ",
"                                   ..++.",
"                                  ..++. ",
"                                 ..++.  ",
"                                ..++.   ",
"                               ..++.    ",
"                              .@++..    ",
"                             .@@+..     ",
"                            .#@@..      ",
"                           .##@@.       ",
"                          .###@.        ",
"                         .$###.         ",
"                        .$$##..         ",
"                       .$$$#..          ",
"                      .%$$$#.           ",
"                    ..%%$$$.            ",
"                   ..%%%$$.             ",
"                  ..&%%%$.              ",
"                 ..&&%%%..              ",
"  .             ..&&&%%%.               ",
" .*..          ..=&&&%%.                ",
"  .**..       ..==&&&%.                 ",
"  .****... ....===&&&.                  ",
"   .******...--===&&..                  ",
"   .********---===&&.                   ",
"    .*******---===&.                    ",
"     .******---===.                     ",
"     .******---==..                     ",
"      .*****---==.                      ",
"      .*****---=.                       ",
"       .****---..                       ",
"       .****---.                        ",
"        .***--.                         ",
"         .**-.                          ",
"         .**-.                          ",
"          .*.                           ",
"           .                            ",
"                                        ",
"                                        "};
