/* XPM */
static const char * Ok1_xpm[] = {
"17 17 52 1",
" 	c None",
".	c #808E61",
"+	c #B4C19A",
"@	c #A0AE85",
"#	c #7C8B5E",
"$	c #B7C49E",
"%	c #9FAD84",
"&	c #99A879",
"*	c #CAD7B0",
"=	c #8F9E72",
"-	c #8E9F6C",
";	c #B5C692",
">	c #A9B78C",
",	c #879863",
"'	c #A6BA7D",
")	c #99AB76",
"!	c #81945A",
"~	c #9BB06E",
"{	c #9FB377",
"]	c #7B8D56",
"^	c #8CA55B",
"/	c #97AC6B",
"(	c #798B54",
"_	c #7E9747",
":	c #8EA65B",
"<	c #80915B",
"[	c #61723E",
"}	c #687946",
"|	c #768851",
"1	c #748D3E",
"2	c #7E9846",
"3	c #85995B",
"4	c #647541",
"5	c #4F6228",
"6	c #576A32",
"7	c #637440",
"8	c #697C41",
"9	c #6A8137",
"0	c #738D3C",
"a	c #7B914D",
"b	c #5B6D37",
"c	c #5D722E",
"d	c #688034",
"e	c #728A41",
"f	c #6D7D4C",
"g	c #688036",
"h	c #5D6F39",
"i	c #6E8046",
"j	c #55672F",
"k	c #64773A",
"l	c #637540",
"m	c #6D7E49",
"                 ",
"              .+@",
"             #$% ",
"            &*=  ",
"           -;>   ",
"          ,')    ",
"         !~{     ",
"        ]^/      ",
"       (_:<      ",
" [}   |123       ",
" 4567890a        ",
"  b55cde         ",
"  f55cg|         ",
"   h5ci          ",
"    jk           ",
"    lm           ",
"                 "};
