/* XPM */
static const char * OkAll_xpm[] = {
"17 17 53 1",
" 	c None",
".	c #808E61",
"+	c #B4C19A",
"@	c #A0AE85",
"#	c #7C8B5E",
"$	c #B7C49E",
"%	c #9FAD84",
"&	c #99A879",
"*	c #CAD7B0",
"=	c #8F9E72",
"-	c #8E9F6C",
";	c #B5C692",
">	c #A9B78C",
",	c #879863",
"'	c #A6BA7D",
")	c #99AB76",
"!	c #81945A",
"~	c #9BB06E",
"{	c #9FB377",
"]	c #7B8D56",
"^	c #8CA55B",
"/	c #97AC6B",
"(	c #798B54",
"_	c #7E9747",
":	c #8EA65B",
"<	c #80915B",
"[	c #61723E",
"}	c #687946",
"|	c #768851",
"1	c #748D3E",
"2	c #7E9846",
"3	c #85995B",
"4	c #FF0000",
"5	c #647541",
"6	c #4F6228",
"7	c #576A32",
"8	c #637440",
"9	c #697C41",
"0	c #6A8137",
"a	c #738D3C",
"b	c #7B914D",
"c	c #5B6D37",
"d	c #5D722E",
"e	c #688034",
"f	c #728A41",
"g	c #6D7D4C",
"h	c #688036",
"i	c #5D6F39",
"j	c #6E8046",
"k	c #55672F",
"l	c #64773A",
"m	c #637540",
"n	c #6D7E49",
"                 ",
"              .+@",
"             #$% ",
"            &*=  ",
"           -;>   ",
"          ,')    ",
"         !~{     ",
"        ]^/      ",
"       (_:<      ",
" [}   |123  44   ",
" 567890ab   44   ",
"  c66def   4  4  ",
"  g66dh|   4  4  ",
"   i6dj    4444  ",
"    kl    4    4 ",
"    mn    4    4 ",
"                 "};
