/* XPM */
static const char * OpenImage_xpm[] = {
"17 17 142 2",
"  	c None",
". 	c #FCF5C5",
"+ 	c #FCF7D0",
"@ 	c #FBF8DB",
"# 	c #F8F9E5",
"$ 	c #F6F9E6",
"% 	c #F7F7E4",
"& 	c #F8F6E0",
"* 	c #F9F5DB",
"= 	c #F9F4D4",
"- 	c #FAF5D1",
"; 	c #F9F3C9",
"> 	c #FDF7D4",
", 	c #FDF7D2",
"' 	c #FDF5D0",
") 	c #FAF3D4",
"! 	c #F4F5E0",
"~ 	c #EDF9E3",
"{ 	c #ECFAE6",
"] 	c #ECF8E7",
"^ 	c #F3F6F0",
"/ 	c #E5E2CF",
"( 	c #E1D38D",
"_ 	c #FCF4C8",
": 	c #FCF4CA",
"< 	c #FCF4C9",
"[ 	c #FBF1B5",
"} 	c #FBF0C6",
"| 	c #FAE1C7",
"1 	c #EFEBD0",
"2 	c #D5F3C8",
"3 	c #DDECD8",
"4 	c #D7D3C4",
"5 	c #D9CC93",
"6 	c #FBF0BC",
"7 	c #FBF1BE",
"8 	c #FAEEB1",
"9 	c #FBF0B8",
"0 	c #F6EBB6",
"a 	c #CBB090",
"b 	c #EED6BA",
"c 	c #C3E0B8",
"d 	c #BBCCB6",
"e 	c #C8C5B9",
"f 	c #D4C9A0",
"g 	c #F9EBAB",
"h 	c #FAECB0",
"i 	c #F9E89D",
"j 	c #FAEEB4",
"k 	c #F3E5A6",
"l 	c #BF9F77",
"m 	c #DFC1A3",
"n 	c #839E7B",
"o 	c #AABFA5",
"p 	c #C3BFB0",
"q 	c #D1C394",
"r 	c #F6DD7B",
"s 	c #F8E495",
"t 	c #F7E491",
"u 	c #F9E9A6",
"v 	c #F2E199",
"w 	c #C19A6E",
"x 	c #DAB693",
"y 	c #76986E",
"z 	c #A1B89D",
"A 	c #C5C1B1",
"B 	c #E0D19E",
"C 	c #F4D769",
"D 	c #F4D86D",
"E 	c #F6DE82",
"F 	c #F8E396",
"G 	c #F1DC8B",
"H 	c #C29362",
"I 	c #D2AC82",
"J 	c #63945C",
"K 	c #9AB397",
"L 	c #C2B897",
"M 	c #D8C06D",
"N 	c #F3D260",
"O 	c #F3D261",
"P 	c #F3D465",
"Q 	c #F5DB7E",
"R 	c #F0D67D",
"S 	c #C3874E",
"T 	c #CC9F6E",
"U 	c #4E8F48",
"V 	c #87A985",
"W 	c #C4B685",
"X 	c #F2CD57",
"Y 	c #F2CE57",
"Z 	c #F2CF59",
"` 	c #F2D15F",
" .	c #EED06B",
"..	c #C57F3F",
"+.	c #C69056",
"@.	c #418C3D",
"#.	c #7FA37E",
"$.	c #C6B57D",
"%.	c #F1C94F",
"&.	c #F1C94E",
"*.	c #F1CA50",
"=.	c #F1CB51",
"-.	c #ECC855",
";.	c #C67935",
">.	c #C08647",
",.	c #358A33",
"'.	c #7C9F7B",
").	c #C6B375",
"!.	c #EFC546",
"~.	c #EFC647",
"{.	c #F0C648",
"].	c #EDCC5F",
"^.	c #C78C4D",
"/.	c #B67C3A",
"(.	c #288827",
"_.	c #759974",
":.	c #C5AE6A",
"<.	c #EEC13E",
"[.	c #EFC23F",
"}.	c #EFC240",
"|.	c #E7C96E",
"1.	c #DEB268",
"2.	c #AE7631",
"3.	c #1C851D",
"4.	c #789777",
"5.	c #C5AB62",
"6.	c #E2B536",
"7.	c #E8BA36",
"8.	c #EDBE38",
"9.	c #EEBF39",
"0.	c #E6C667",
"a.	c #E0B165",
"b.	c #A8722B",
"c.	c #128313",
"d.	c #759574",
"e.	c #C0A559",
"f.	c #E7B732",
"g.	c #E7BE4A",
"h.	c #DFA652",
"i.	c #B16C2A",
"j.	c #218723",
"k.	c #639363",
"                                  ",
"    . + @ # $ % & * = - ;         ",
"      > , ' ) ! ~ { ] ^ / (       ",
"      _ : < [ } | 1 2 3 4 5       ",
"      6 7 8 9 0 a b c d e f       ",
"      g h i j k l m n o p q       ",
"      r s t u v w x y z A B       ",
"      C D E F G H I J K L M       ",
"      N O P Q R S T U V W         ",
"      X Y Z `  ...+.@.#.$.        ",
"      %.&.*.=.-.;.>.,.'.).        ",
"      !.!.~.{.].^./.(._.:.        ",
"      <.<.[.}.|.1.2.3.4.5.        ",
"      6.7.8.9.0.a.b.c.d.e.        ",
"            f.g.h.i.j.k.          ",
"                                  ",
"                                  "};
