/* XPM */
static const char * Redo_xpm[] = {
"17 17 50 1",
" 	c None",
".	c #627637",
"+	c #5E7333",
"@	c #5D7232",
"#	c #5D7233",
"$	c #607536",
"%	c #677B3D",
"&	c #6E8342",
"*	c #647A36",
"=	c #637A35",
"-	c #6B803E",
";	c #6A8239",
">	c #698138",
",	c #6A823A",
"'	c #728944",
")	c #748E42",
"!	c #6F893B",
"~	c #708A3C",
"{	c #7B924C",
"]	c #728C3F",
"^	c #708A3D",
"/	c #768F44",
"(	c #7C944D",
"_	c #779240",
":	c #76913E",
"<	c #7E974A",
"[	c #839B51",
"}	c #789342",
"|	c #77923F",
"1	c #80984D",
"2	c #7C9841",
"3	c #7C9842",
"4	c #839D4C",
"5	c #83A047",
"6	c #85A14A",
"7	c #8FAA55",
"8	c #9BB565",
"9	c #9AB463",
"0	c #A1B96D",
"a	c #A9C176",
"b	c #A6BF72",
"c	c #A7C073",
"d	c #AFC67E",
"e	c #B2CA81",
"f	c #B2CA80",
"g	c #B3CB82",
"h	c #BFD492",
"i	c #BED48F",
"j	c #C0D592",
"k	c #C9DE9E",
"                 ",
"                 ",
"     .+@#$%      ",
"   &*======-     ",
"   ;>>>,>>>>'    ",
"  )!!~{  ]!!^/(  ",
"  _::<  [}|:_1   ",
"  223      4     ",
"  556            ",
"  777            ",
"  8990           ",
"  abbcd          ",
"   effg          ",
"   hiij          ",
"     k           ",
"                 ",
"                 "};
