/* XPM */
static const char * Save_xpm[] = {
"17 17 108 2",
"  	c None",
". 	c #646464",
"+ 	c #545454",
"@ 	c #D9D9D9",
"# 	c #F8F9FA",
"$ 	c #F8F8FA",
"% 	c #D1D2D2",
"& 	c #595959",
"* 	c #6C6C6C",
"= 	c #555555",
"- 	c #4A4A4A",
"; 	c #D5D6D6",
"> 	c #F5F6F8",
", 	c #F4F5F8",
"' 	c #CCCCCD",
") 	c #4B4B4B",
"! 	c #5E5E5E",
"~ 	c #565656",
"{ 	c #D0D1D3",
"] 	c #EFF1F4",
"^ 	c #EEF1F4",
"/ 	c #C8C8CA",
"( 	c #464646",
"_ 	c #4C4C4C",
": 	c #444444",
"< 	c #CBCDCF",
"[ 	c #EBEDF0",
"} 	c #EAEDF0",
"| 	c #C3C4C6",
"1 	c #414142",
"2 	c #474747",
"3 	c #3E3E3E",
"4 	c #C6C8CB",
"5 	c #E6E9ED",
"6 	c #E6EAED",
"7 	c #BDC0C2",
"8 	c #3C3C3C",
"9 	c #515151",
"0 	c #424242",
"a 	c #393939",
"b 	c #C1C4C7",
"c 	c #E0E4E8",
"d 	c #E1E5E9",
"e 	c #E0E5E9",
"f 	c #B8BBBE",
"g 	c #373737",
"h 	c #3D3D3D",
"i 	c #323233",
"j 	c #AFB1B4",
"k 	c #D3D7DB",
"l 	c #D4D7DB",
"m 	c #A9AAAD",
"n 	c #313131",
"o 	c #484848",
"p 	c #383838",
"q 	c #2A2A2B",
"r 	c #414141",
"s 	c #2A2A2A",
"t 	c #434343",
"u 	c #333333",
"v 	c #242424",
"w 	c #262626",
"x 	c #797979",
"y 	c #7D7D7D",
"z 	c #7E7E7E",
"A 	c #A0A0A0",
"B 	c #A1A1A1",
"C 	c #8B8B8B",
"D 	c #323232",
"E 	c #2E2E2E",
"F 	c #1F1F1F",
"G 	c #232323",
"H 	c #A4A4A4",
"I 	c #252525",
"J 	c #272727",
"K 	c #C5C5C5",
"L 	c #D2D2D2",
"M 	c #BFBFBF",
"N 	c #363636",
"O 	c #2B2B2B",
"P 	c #1A1A1A",
"Q 	c #1E1E1E",
"R 	c #9B9B9B",
"S 	c #181818",
"T 	c #1B1B1B",
"U 	c #B9B9B9",
"V 	c #C7C7C7",
"W 	c #B5B5B5",
"X 	c #3F3F3F",
"Y 	c #353535",
"Z 	c #151515",
"` 	c #191919",
" .	c #919191",
"..	c #171717",
"+.	c #AEAEAE",
"@.	c #BABABA",
"#.	c #AAAAAA",
"$.	c #3B3B3B",
"%.	c #2D2D2D",
"&.	c #111111",
"*.	c #898989",
"=.	c #1D1D1D",
"-.	c #AFAFAF",
";.	c #808080",
">.	c #9C9C9C",
",.	c #9D9D9D",
"'.	c #3A3A3A",
").	c #303030",
"                                  ",
"  . + @ # $ $ $ $ $ $ $ # % & *   ",
"  = - ; > , , , , , , , > ' ) !   ",
"  = ~ { ] ^ ^ ^ ^ ^ ^ ^ ] / ( &   ",
"  _ : < [ } } } } } } } } | 1 =   ",
"  2 3 4 5 6 6 6 6 6 6 6 5 7 8 9   ",
"  0 a b c d d d d d d d e f g _   ",
"  h i j k k k k k k k k l m n o   ",
"  p q p r 0 0 0 0 0 0 1 1 p s t   ",
"  u v w x y z A B B B C 8 D v 3   ",
"  E F G H I J K L L L M t N F a   ",
"  O P Q R S T U V V V W X D P Y   ",
"  J Z `  ...P +.@.@.@.#.$.E Z n   ",
"  %.&.Z *.P =.H -.-.-.A N O &.%.  ",
"    I Q ;.C C >.,.,.,. .'.).T h   ",
"                                  ",
"                                  "};
