/* XPM */
static const char * Statistics_xpm[] = {
"17 17 100 2",
"  	c None",
". 	c #C6D0A6",
"+ 	c #C3CEA4",
"@ 	c #D4E0B2",
"# 	c #C6D1A6",
"$ 	c #C8D3A6",
"% 	c #414537",
"& 	c #E5F2BE",
"* 	c #D6E2B1",
"= 	c #C6D0A7",
"- 	c #5A5F4C",
"; 	c #E5F1C1",
"> 	c #E7F3C3",
", 	c #DBEDA4",
"' 	c #D8E3B6",
") 	c #D4E0AD",
"! 	c #788063",
"~ 	c #E4F1BB",
"{ 	c #D7EB9B",
"] 	c #9ACC02",
"^ 	c #D5EA96",
"/ 	c #D5E1AE",
"( 	c #D8E2B8",
"_ 	c #7B8169",
": 	c #E8F4C6",
"< 	c #B5DA46",
"[ 	c #AAD52B",
"} 	c #B2D83E",
"| 	c #D9E4B9",
"1 	c #DCEDA6",
"2 	c #C2E066",
"3 	c #D9ECA0",
"4 	c #A0D012",
"5 	c #DFEFAF",
"6 	c #A2D016",
"7 	c #D6EA98",
"8 	c #D6E1B3",
"9 	c #7A8066",
"0 	c #E6F3C1",
"a 	c #BADC52",
"b 	c #D6EB99",
"c 	c #B7DB4C",
"d 	c #C1E064",
"e 	c #C6E26F",
"f 	c #B2D940",
"g 	c #D7E3B4",
"h 	c #D6E1B2",
"i 	c #E6F2C0",
"j 	c #DFEFAE",
"k 	c #9FCF10",
"l 	c #C4E26C",
"m 	c #ABD52D",
"n 	c #E6F2BF",
"o 	c #DDEEAA",
"p 	c #A0CF11",
"q 	c #E1F0B5",
"r 	c #E3F1BA",
"s 	c #A2D015",
"t 	c #D9EC9F",
"u 	c #D7E2B3",
"v 	c #BCDD57",
"w 	c #BADD53",
"x 	c #E3F1B9",
"y 	c #A8D325",
"z 	c #CBE57E",
"A 	c #B9DC51",
"B 	c #BDDE59",
"C 	c #C3E168",
"D 	c #B3D941",
"E 	c #E3F1B8",
"F 	c #E0F0B2",
"G 	c #D5EA95",
"H 	c #A3D11A",
"I 	c #E2F0B6",
"J 	c #BBDD54",
"K 	c #D9E3B8",
"L 	c #BEDF5E",
"M 	c #B8DB4D",
"N 	c #B1D83D",
"O 	c #D7E2B5",
"P 	c #7A8167",
"Q 	c #DDEEAB",
"R 	c #D5E1B0",
"S 	c #798064",
"T 	c #B6DA47",
"U 	c #E5F2BD",
"V 	c #D4E0AE",
"W 	c #798063",
"X 	c #DAECA2",
"Y 	c #D5E2AF",
"Z 	c #D8E2B7",
"` 	c #5B604D",
" .	c #81886C",
"..	c #46493D",
"+.	c #B8C19C",
"@.	c #D3DFAE",
"#.	c #C9D5A7",
"$.	c #8D9574",
"%.	c #D0DDAB",
"&.	c #C5D0A5",
". + @ @ @ @ @ @ @ @ @ @ @ @ @ @ # ",
"$ % & & & & & & & & & & & & & & * ",
"= - ; > > > > > > > > > , > > > ' ",
") ! ~ ~ ~ ~ ~ ~ ~ ~ ~ { ] ^ ~ ~ / ",
"( _ : : : : : : : : : < [ } : : | ",
") ! ~ ~ ~ 1 2 ~ ~ ~ 3 4 5 6 7 ~ / ",
"8 9 0 0 0 a ] b 0 0 c d 0 e f 0 g ",
"h 9 i i j k l m n o p q i r s t u ",
") ! ~ ~ v w x y z A B ~ ~ ~ C D / ",
"( _ : E p F : G H p I : : : & J K ",
") ! ~ L M ~ ~ ~ N J ~ ~ ~ ~ ~ ~ / ",
"O P x 4 Q > > > 0 i > > > > > > ' ",
"R S 2 T U U U U U U U U U U U U * ",
"V W t X ~ ~ ~ ~ ~ ~ ~ ~ ~ ~ ~ ~ Y ",
"Z `  . . . . . . . . . . . . ...+.",
") @.#.#.#.#.#.#.#.#.#.#.#.#.#.$.%.",
"&.@ @ @ @ @ @ @ @ @ @ @ @ @ @ @ # "};
