/* XPM */
static const char * Undo_xpm[] = {
"17 17 50 1",
" 	c None",
".	c #697D3F",
"+	c #64783A",
"@	c #627737",
"#	c #637839",
"$	c #6C823F",
"%	c #687E3A",
"&	c #6A803D",
"*	c #738A44",
"=	c #6E853D",
"-	c #6E863D",
";	c #718841",
">	c #7D954D",
",	c #7A9348",
"'	c #748E40",
")	c #748D3F",
"!	c #799147",
"~	c #748D40",
"{	c #7E964D",
"]	c #80994A",
"^	c #7B9543",
"/	c #7B9542",
"(	c #7F9949",
"_	c #89A057",
":	c #7F9848",
"<	c #87A150",
"[	c #859F4E",
"}	c #8AA454",
"|	c #819C46",
"1	c #829D48",
"2	c #87A34B",
"3	c #88A44C",
"4	c #9CB566",
"5	c #93AE57",
"6	c #93AE58",
"7	c #A1BA6C",
"8	c #9DB766",
"9	c #A0B969",
"0	c #B1C980",
"a	c #A9C375",
"b	c #A9C274",
"c	c #ADC57B",
"d	c #B5CD83",
"e	c #B5CC82",
"f	c #C0D691",
"g	c #C0D590",
"h	c #C0D690",
"i	c #C2D794",
"j	c #CDE1A2",
"k	c #CCE19F",
"                 ",
"                 ",
"      .+@@#.     ",
"     $%%%%%%&    ",
"    *===--===;   ",
"  >,'))!  !~)){  ",
"   ]^/^(_  ://:  ",
"    <[     }||1  ",
"            223  ",
"           4556  ",
"           7889  ",
"          0abbc  ",
"          deed   ",
"          fghi   ",
"          jk     ",
"                 ",
"                 "};
